<svg width="23" height="21" viewBox="0 0 23 21" fill="none" xmlns="http://www.w3.org/2000/svg">
<path d="M17.579 13.0097C17.212 11.6849 16.4185 10.5166 15.3204 9.68402C14.2223 8.85144 12.8802 8.40057 11.5 8.40057C10.1198 8.40057 8.77763 8.85144 7.67953 9.68402C6.58143 10.5166 5.788 11.6849 5.42097 13.0097L4.5463 16.1667C4.38925 16.7335 4.36582 17.3288 4.47783 17.9062C4.58984 18.4835 4.83427 19.0273 5.19205 19.4951C5.54983 19.9629 6.0113 20.3421 6.54048 20.6031C7.06965 20.8642 7.65223 21 8.24279 21H14.7572C15.3477 21 15.9303 20.8642 16.4595 20.6031C16.9887 20.3421 17.4501 19.9629 17.8079 19.4951C18.1657 19.0273 18.4101 18.4835 18.5221 17.9062C18.6342 17.3288 18.6107 16.7335 18.4537 16.1667L17.579 13.0097ZM16.5877 18.5697C16.3739 18.8514 16.0973 19.0797 15.7795 19.2364C15.4618 19.3932 15.1118 19.4741 14.7572 19.4728H8.24279C7.88845 19.4728 7.5389 19.3913 7.22138 19.2347C6.90387 19.0781 6.62699 18.8505 6.41231 18.5698C6.19764 18.2892 6.05098 17.9629 5.98378 17.6165C5.91657 17.2701 5.93063 16.9129 6.02487 16.5728L6.89954 13.4158C7.17731 12.4133 7.77776 11.5291 8.60877 10.8991C9.43978 10.269 10.4555 9.92778 11.5 9.92778C12.5445 9.92778 13.5602 10.269 14.3912 10.8991C15.2222 11.5291 15.8227 12.4133 16.1004 13.4158L16.9751 16.5728C17.0707 16.9128 17.0855 17.2702 17.0182 17.6169C16.951 17.9635 16.8036 18.2898 16.5877 18.5698V18.5697ZM6.23222 9.46534C6.36567 8.63493 6.1887 7.74595 5.73372 6.96154C5.27875 6.17714 4.59389 5.58005 3.80507 5.27991C2.96031 4.95867 2.09868 5.00983 1.37806 5.42389C-0.0544924 6.24744 -0.43148 8.27713 0.537856 9.94846C0.992686 10.7329 1.67759 11.3301 2.46641 11.6301C2.81585 11.7657 3.18727 11.8364 3.56229 11.8387C4.02951 11.8404 4.48882 11.7187 4.89342 11.4861C5.61361 11.072 6.0891 10.3543 6.23222 9.46534ZM4.71756 9.22395C4.64901 9.65009 4.43907 9.98373 4.12641 10.1635C3.81375 10.3432 3.41859 10.3573 3.01356 10.2034C2.55279 10.0282 2.14527 9.66645 1.86601 9.18486C1.32917 8.259 1.45677 7.14223 2.14498 6.7465C2.31799 6.64874 2.51392 6.59839 2.71284 6.60055C2.89942 6.60248 3.08409 6.63833 3.25773 6.70636C3.7185 6.88165 4.12603 7.24336 4.40528 7.72495C4.68453 8.20655 4.7954 8.73901 4.71756 9.22395ZM6.39835 6.30151C6.94296 6.73499 7.56489 6.96073 8.19381 6.96069C8.38219 6.96063 8.57002 6.94045 8.75409 6.9005C10.3705 6.55063 11.3506 4.73174 10.9388 2.84588C10.7457 1.96078 10.276 1.18424 9.61649 0.659219C8.9102 0.0970184 8.07359 -0.115787 7.26075 0.0602225C5.64438 0.410047 4.66431 2.22894 5.076 4.1148C5.26921 4.99995 5.73885 5.77648 6.39835 6.30151ZM7.5865 1.55258C7.66103 1.53658 7.73707 1.52858 7.81332 1.52872C8.09842 1.52872 8.39167 1.63978 8.6587 1.85234C9.04393 2.15898 9.32141 2.62711 9.44 3.17056C9.66816 4.2155 9.20484 5.24029 8.42829 5.40838C8.07546 5.48474 7.69469 5.37841 7.35619 5.10891C6.97095 4.80223 6.69347 4.33409 6.57489 3.7907C6.34668 2.74547 6.81 1.72067 7.5865 1.55258ZM21.6219 5.42389C20.9016 5.00983 20.0395 4.95867 19.1949 5.27991C18.4061 5.57995 17.7212 6.17714 17.2663 6.96154C16.8115 7.74595 16.6345 8.63512 16.7679 9.46534C16.9108 10.3543 17.3862 11.072 18.1067 11.4861C18.5112 11.7187 18.9706 11.8404 19.4378 11.8387C19.8128 11.8364 20.1842 11.7657 20.5337 11.6301C21.3225 11.3301 22.0074 10.7329 22.4622 9.94846C23.4315 8.27713 23.0545 6.24744 21.6219 5.42389ZM21.134 9.18486C20.8547 9.66645 20.4472 10.0282 19.9864 10.2034C19.5816 10.3575 19.1863 10.3433 18.8737 10.1635C18.561 9.98363 18.3512 9.65009 18.2825 9.22395C18.2046 8.73901 18.3154 8.20674 18.5947 7.72538C18.874 7.24403 19.2815 6.88208 19.7422 6.70679C19.9159 6.6387 20.1005 6.60278 20.2871 6.60079C20.4861 6.59862 20.682 6.64898 20.855 6.74673C21.5432 7.14214 21.6709 8.25876 21.134 9.18486ZM14.2459 6.9005C14.43 6.94045 14.6178 6.96063 14.8062 6.96069C15.435 6.96069 16.0572 6.73499 16.6016 6.30151C17.2611 5.77653 17.7308 4.99995 17.924 4.11484C18.3357 2.22899 17.3556 0.410094 15.7392 0.0602702C14.9264 -0.115644 14.0898 0.0970184 13.3835 0.659267C12.7239 1.18424 12.2543 1.96082 12.0611 2.84588C11.6494 4.73174 12.6295 6.55063 14.2459 6.9005ZM13.56 3.17032C13.6786 2.62687 13.956 2.15855 14.3413 1.85211C14.6084 1.63954 14.9016 1.52848 15.1867 1.52848C15.2629 1.52834 15.3389 1.53634 15.4135 1.55234C16.19 1.72043 16.6533 2.74547 16.4252 3.79017C16.3065 4.33362 16.029 4.80194 15.6439 5.10843C15.3054 5.37789 14.9249 5.48422 14.5718 5.40791C13.7951 5.24006 13.3318 4.21511 13.56 3.17032Z" fill="#01623F"/>
</svg>
