<svg width="24" height="25" viewBox="0 0 24 25" fill="none" xmlns="http://www.w3.org/2000/svg">
<path d="M2.28998 8.77998V18.51C2.28998 20.41 3.63998 21.19 5.27998 20.25L7.62998 18.91C8.13998 18.62 8.98998 18.59 9.51998 18.86L14.77 21.49C15.3 21.75 16.15 21.73 16.66 21.44L20.99 18.96C21.54 18.64 22 17.86 22 17.22V7.48998C22 5.58998 20.65 4.80998 19.01 5.74998L16.66 7.08998C16.15 7.37998 15.3 7.40998 14.77 7.13998L9.51998 4.51998C8.98998 4.25998 8.13998 4.27998 7.62998 4.56998L3.29998 7.04998C2.73998 7.36998 2.28998 8.14998 2.28998 8.77998Z" stroke="#01623F" stroke-width="1.5" stroke-linecap="round" stroke-linejoin="round"/>
<path d="M8.56 5V18" stroke="#01623F" stroke-width="1.5" stroke-linecap="round" stroke-linejoin="round"/>
<path d="M15.73 7.62012V21.0001" stroke="#01623F" stroke-width="1.5" stroke-linecap="round" stroke-linejoin="round"/>
</svg>
